# xmcd
#
# Track frame offsets: 
#        150
#        16979
#        28970
#        42396
#        56520
#        73022
#        87137
#        104957
#        115315
#        124918
#        138197
#        152856
#        167697
#        181533
#
# Disc length: 2582 seconds
#
# Revision: 0
# Processed by: cddbd v1.5.2PL0 Copyright (c) Steve Scherf et al.
# Submitted via: ExactAudioCopy v1.0b3
#
DISCID=c00a140e
DTITLE=Kasey Chambers - Rattlin' Bones
DYEAR=2008
DGENRE=Country
TTITLE0=Rattlin' Bones
TTITLE1=Once In A While
TTITLE2=Sweetest Waste Of Time
TTITLE3=Monkey On A Wire
TTITLE4=One More Year
TTITLE5=The House That Never Was
TTITLE6=Wildflower
TTITLE7=No One Hurts Up Here
TTITLE8=The Devil's Inside My Head
TTITLE9=Sleeping Cold
TTITLE10=Adeline
TTITLE11=Jackson Hole
TTITLE12=Your Day Will Come
TTITLE13=Woe Is Mine
EXTD=
EXTT0=
EXTT1=
EXTT2=
EXTT3=
EXTT4=
EXTT5=
EXTT6=
EXTT7=
EXTT8=
EXTT9=
EXTT10=
EXTT11=
EXTT12=
EXTT13=
PLAYORDER=
